Coordinates
version=1
nRows=5
nColumns=114
inDegrees=yes

Units are S.I. units (second, meters, Newtons, ...)
If the header above contains a line with 'inDegrees', this indicates whether rotational values are in degrees (yes) or radians (no).

endheader 
time	pelvis_tilt	pelvis_list	pelvis_rotation	pelvis_tx	pelvis_ty	pelvis_tz	hip_flexion_l	hip_adduction_l	hip_rotation_l	hip_flexion_r	hip_adduction_r	hip_rotation_r	knee_angle_l	knee_angle_r	ankle_angle_l	ankle_angle_r	subtalar_angle_l	subtalar_angle_r	mtp_angle_l	mtp_angle_r	lumbar_extension	lumbar_bending	lumbar_rotation	arm_flex_l	arm_add_l	arm_rot_l	arm_flex_r	arm_add_r	arm_rot_r	elbow_flex_l	elbow_flex_r	pro_sup_l	pro_sup_r	addbrev_l/activation	addlong_l/activation	addmagDist_l/activation	addmagIsch_l/activation	addmagMid_l/activation	addmagProx_l/activation	bflh_l/activation	bfsh_l/activation	edl_l/activation	ehl_l/activation	fdl_l/activation	fhl_l/activation	gaslat_l/activation	gasmed_l/activation	glmax1_l/activation	glmax2_l/activation	glmax3_l/activation	glmed1_l/activation	glmed2_l/activation	glmed3_l/activation	glmin1_l/activation	glmin2_l/activation	glmin3_l/activation	grac_l/activation	iliacus_l/activation	perbrev_l/activation	perlong_l/activation	piri_l/activation	psoas_l/activation	recfem_l/activation	sart_l/activation	semimem_l/activation	semiten_l/activation	soleus_l/activation	tfl_l/activation	tibant_l/activation	tibpost_l/activation	vasint_l/activation	vaslat_l/activation	vasmed_l/activation	addbrev_r/activation	addlong_r/activation	addmagDist_r/activation	addmagIsch_r/activation	addmagMid_r/activation	addmagProx_r/activation	bflh_r/activation	bfsh_r/activation	edl_r/activation	ehl_r/activation	fdl_r/activation	fhl_r/activation	gaslat_r/activation	gasmed_r/activation	glmax1_r/activation	glmax2_r/activation	glmax3_r/activation	glmed1_r/activation	glmed2_r/activation	glmed3_r/activation	glmin1_r/activation	glmin2_r/activation	glmin3_r/activation	grac_r/activation	iliacus_r/activation	perbrev_r/activation	perlong_r/activation	piri_r/activation	psoas_r/activation	recfem_r/activation	sart_r/activation	semimem_r/activation	semiten_r/activation	soleus_r/activation	tfl_r/activation	tibant_r/activation	tibpost_r/activation	vasint_r/activation	vaslat_r/activation	vasmed_r/activation	
          2.34000000	        -19.95022166	         -5.00559179	        -48.56047838	          1.33844037	          1.06773248	          0.26928933	         27.49164207	        -14.41602442	         -4.54722142	         66.35144192	        -10.74964342	         -9.29021655	         38.68993596	        130.36351472	         -7.65319346	         -9.78760263	        -19.48221821	        -21.04070599	        -14.61504933	        -11.91633580	        -26.76710589	         15.75582595	         12.26108734	        -20.33233308	        -27.74950235	          3.97684869	        -16.53730509	        -40.85923053	         17.69154732	         62.27079038	         68.82980036	         74.44544276	         58.56034159	          0.01008146	          0.01005322	          0.01005854	          0.01413632	          0.01006938	          0.01014952	          0.08136646	          0.19666234	          0.17054449	          0.05615803	          0.01065427	          0.01030569	          0.03667024	          0.29120753	          0.09701109	          0.14152187	          0.01440927	          0.12699781	          0.10115402	          0.09188478	          0.04105025	          0.05071520	          0.03630385	          0.01043266	          0.16473094	          0.09034366	          0.11045441	          0.05052345	          0.17515149	          0.01439354	          0.27265826	          0.08474970	          0.01117642	          0.04308107	          0.05019826	          0.15590425	          0.01016095	          0.01897750	          0.08139803	          0.01937282	          0.01011479	          0.01007445	          0.01016248	          0.01017218	          0.01020678	          0.07821121	          0.10496931	          0.01407708	          0.06300715	          0.02719580	          0.01069556	          0.01038217	          0.01623976	          0.02693059	          0.01005988	          0.01008720	          0.03361670	          0.01001049	          0.01002412	          0.01004748	          0.01002944	          0.01003247	          0.01003983	          0.01016601	          0.01005712	          0.03220463	          0.04717262	          0.01012459	          0.16314491	          0.11995974	          0.07848513	          0.01004850	          0.01012762	          0.01003991	          0.02589786	          0.07101415	          0.01020421	          0.05721860	          0.07164927	          0.06162099	
          2.35000000	        -20.70614365	         -5.80092884	        -49.24313602	          1.33864585	          1.05939065	          0.27198687	         25.10614405	        -15.96513538	         -5.37585572	         65.95179562	         -9.08262635	        -10.76663741	         33.26264266	        130.16121162	        -11.57998798	         -9.48394193	        -18.30724404	        -21.21643850	        -12.84630286	        -10.49143634	        -26.54248743	         16.90412562	         13.69153689	        -21.42732492	        -26.72162199	          3.29093385	        -17.11772491	        -41.25963217	         18.02222976	         59.23320619	         68.69947264	         74.06582745	         58.26244425	          0.01004782	          0.01002786	          0.01006133	          0.01179416	          0.01005380	          0.01012864	          0.06788654	          0.26034136	          0.23671756	          0.05974985	          0.01111562	          0.01059764	          0.03061590	          0.30664556	          0.08085306	          0.11794073	          0.01201606	          0.10583788	          0.08431329	          0.07658986	          0.03422555	          0.04231899	          0.03032700	          0.01400448	          0.13745560	          0.09336905	          0.10417949	          0.04217804	          0.19884687	          0.01200271	          0.34489409	          0.18183687	          0.07471769	          0.03875522	          0.04192562	          0.20026564	          0.01030008	          0.01581748	          0.06783269	          0.01614594	          0.01225520	          0.01019356	          0.02546537	          0.01032137	          0.06970398	          0.08287650	          0.09332302	          0.01201090	          0.05660771	          0.02666667	          0.01066278	          0.01043535	          0.01364028	          0.02252488	          0.01006091	          0.01008215	          0.07585627	          0.01001082	          0.01002544	          0.01005064	          0.01003076	          0.01003257	          0.01004086	          0.01037247	          0.01005437	          0.03053267	          0.04144496	          0.01008725	          0.13598391	          0.09997004	          0.06542110	          0.01187144	          0.01024325	          0.01003978	          0.02160699	          0.06520358	          0.01024133	          0.04794617	          0.05973835	          0.05144627	
          2.36000000	        -21.51436558	         -6.55982924	        -49.79135292	          1.33879378	          1.04967726	          0.27445017	         23.03075242	        -17.37708831	         -5.84310639	         65.74204693	         -7.51562606	        -12.24325837	         28.49275919	        129.87603127	        -14.81194194	         -9.04303478	        -17.17871110	        -21.47553661	        -11.25649238	         -9.24591237	        -26.26504222	         18.13249862	         14.92566123	        -22.55927262	        -26.02707180	          2.65122977	        -17.77743426	        -41.68049662	         18.30199663	         56.33144716	         68.66815533	         73.72555446	         57.98121155	          0.01442096	          0.01442444	          0.01004161	          0.01002767	          0.01016251	          0.01446330	          0.13885849	          0.26521141	          0.29944252	          0.08706535	          0.01002207	          0.01001267	          0.02553283	          0.40629285	          0.06738863	          0.09828997	          0.01002530	          0.08820580	          0.07028459	          0.06384408	          0.02854135	          0.03533189	          0.02534732	          0.06008690	          0.16108523	          0.11995565	          0.08682110	          0.03519720	          0.22509570	          0.01001100	          0.32031730	          0.21014537	          0.11158754	          0.03229771	          0.03495534	          0.25032263	          0.01000562	          0.01318429	          0.05652833	          0.01345697	          0.05683205	          0.06152302	          0.06126626	          0.03689878	          0.06167749	          0.06917025	          0.07781954	          0.01182195	          0.04776822	          0.02502910	          0.01020036	          0.01010298	          0.01229627	          0.01889420	          0.01006807	          0.01005975	          0.06328117	          0.01002217	          0.01004793	          0.01007861	          0.01006130	          0.01006146	          0.01007237	          0.06411078	          0.01922793	          0.02747035	          0.03498979	          0.01008085	          0.11335533	          0.08331277	          0.05453373	          0.11790779	          0.04367192	          0.01001820	          0.01804280	          0.05634901	          0.01004851	          0.03999458	          0.04979057	          0.04289316	
          2.37000000	        -22.27211491	         -7.18083198	        -50.18031947	          1.33896755	          1.03843572	          0.27679544	         21.37079193	        -18.50639330	         -5.80403109	         65.73337917	         -6.14952833	        -13.56348991	         24.82963423	        129.60800072	        -16.45361422	         -8.53903461	        -16.18616218	        -21.73147789	         -9.61076948	         -8.15824062	        -25.82570678	         19.28750630	         15.81428902	        -23.97415078	        -25.60798775	          1.73908516	        -18.28661455	        -42.09601758	         18.82934161	         53.88877355	         68.68544908	         73.48399668	         57.87580147	          0.01203039	          0.01202497	          0.01201390	          0.01201505	          0.01198174	          0.01209324	          0.11571692	          0.22101636	          0.24953592	          0.07257845	          0.09140817	          0.14385200	          0.22734532	          0.45467782	          0.08110622	          0.12392192	          0.01441526	          0.07351195	          0.05871791	          0.09194670	          0.02379961	          0.02951844	          0.02128399	          0.05008160	          0.13424345	          0.09996618	          0.07235282	          0.04450917	          0.18758695	          0.25548772	          0.26694397	          0.17512143	          0.09299387	          0.25170322	          0.09440672	          0.22379071	          0.24890732	          0.01103559	          0.10770662	          0.01124673	          0.04739952	          0.05130136	          0.05113149	          0.04131848	          0.05144820	          0.05767866	          0.14184315	          0.01167905	          0.03983895	          0.02215167	          0.01240618	          0.01055409	          0.01230591	          0.01599858	          0.01005745	          0.01004202	          0.05277442	          0.01005756	          0.01008036	          0.01008881	          0.01029531	          0.01012430	          0.01010559	          0.05357058	          0.01707860	          0.02294521	          0.02917787	          0.01006262	          0.09447792	          0.06943051	          0.04546164	          0.12267560	          0.06027744	          0.01003543	          0.01510635	          0.04795757	          0.01071933	          0.03336276	          0.04149906	          0.03576199	
          2.38000000	        -22.85548490	         -7.57600207	        -50.43109723	          1.33922713	          1.02570520	          0.27918251	         20.12495780	        -19.23816945	         -5.28682721	         65.90444488	         -5.03183470	        -14.54471978	         22.72409757	        129.43125218	        -16.06896539	         -8.04305456	        -15.39461589	        -21.85132545	        -10.69434437	         -7.20524395	        -25.16062945	         20.18815081	         16.23949642	        -25.93789988	        -25.28388725	          0.12346347	        -18.38173095	        -42.46388326	         19.88999485	         52.16119020	         68.64169274	         73.30765125	         58.03488506	          0.01003966	          0.01002638	          0.01003293	          0.01003022	          0.01002540	          0.01010924	          0.09643337	          0.18418884	          0.20795183	          0.06049134	          0.07621574	          0.11990993	          0.18949298	          0.37890258	          0.06761577	          0.10327849	          0.01202169	          0.06126778	          0.05517230	          0.14993701	          0.01985005	          0.07676094	          0.06363122	          0.04174188	          0.11188705	          0.08330893	          0.06029532	          0.09650307	          0.15635778	          0.29927661	          0.22256357	          0.14593632	          0.07749782	          0.20975805	          0.17877286	          0.18649711	          0.22893386	          0.06031213	          0.11509987	          0.09582073	          0.03951322	          0.04276159	          0.04263547	          0.03451826	          0.04289071	          0.04808468	          0.19915589	          0.01679888	          0.03336508	          0.01869592	          0.01434422	          0.01395491	          0.01359147	          0.01416588	          0.01556986	          0.01433600	          0.04400537	          0.01212316	          0.01344382	          0.01547541	          0.01227424	          0.01242475	          0.01373431	          0.04468088	          0.01426273	          0.01917299	          0.02436735	          0.01872054	          0.07873969	          0.05786309	          0.03790518	          0.12511083	          0.05034127	          0.01060033	          0.01283714	          0.04015714	          0.01501453	          0.02782640	          0.03458747	          0.02981423	
